<?xml version="1.0" encoding="UTF-8"?>
<svg width="93px" height="84px" viewBox="0 0 93 84" version="1.1" xmlns="http://www.w3.org/2000/svg" xmlns:xlink="http://www.w3.org/1999/xlink">
    <!-- Generator: Sketch 47.1 (45422) - http://www.bohemiancoding.com/sketch -->
    <title>Chapter00_quoteicon</title>
    <desc>Created with Sketch.</desc>
    <defs></defs>
    <g id="Assets" stroke="none" stroke-width="1" fill="none" fill-rule="evenodd">
        <g id="Icons" transform="translate(-161.000000, -213.000000)" fill="#D2D2D2">
            <g id="Chapter00_quoteicon" transform="translate(161.000000, 213.000000)">
                <path d="M41,34.9327503 C41,41.0195455 40.5146798,46.7241768 39.5497716,52.0503545 C38.5829527,57.3765322 36.6550471,62.2055257 33.7584118,66.5410455 C30.8598658,70.8765653 26.7384658,74.5293845 21.3903905,77.4939376 C16.0404045,80.462201 8.91345885,82.6308885 0,84 L0,64.146028 C6.68557181,63.3854105 11.3629882,61.1017028 14.0379812,57.2986153 C16.7091528,53.4973829 18.2702023,48.6349964 18.2702023,42.0064931 L0,42.0064931 L0,0 L41,0 L41,34.9327503 Z" id="Fill-1"></path>
                <path d="M93,34.9327503 C93,41.0195455 92.5165905,46.7260319 91.5516824,52.0503545 C90.5848635,57.3765322 88.6569578,62.2055257 85.7584118,66.5410455 C82.8617765,70.8765653 78.7403765,74.5293845 73.3923012,77.4957928 C68.0442259,80.462201 60.9134588,82.6290333 52,84 L52,64.146028 C58.6855718,63.3835553 63.3648989,61.1035579 66.0398919,57.2986153 C68.7129742,53.4955277 70.272113,48.5793414 70.272113,42.0083482 L52,42.0083482 L52,0 L93,0 L93,34.9327503 Z" id="Fill-3"></path>
            </g>
        </g>
    </g>
</svg>