<?xml version="1.0" encoding="utf-8"?>
<!-- Generator: Adobe Illustrator 21.1.0, SVG Export Plug-In . SVG Version: 6.00 Build 0)  -->
<svg version="1.1" id="Capa_1" xmlns="http://www.w3.org/2000/svg" xmlns:xlink="http://www.w3.org/1999/xlink" x="0px" y="0px"
	 viewBox="0 0 147 143" style="enable-background:new 0 0 147 143;" xml:space="preserve">
<style type="text/css">
	.st0{fill:#505050;}
	.st1{fill:#D2D2D2;}
	.st2{fill:#737373;}
	.st3{fill:#FFFFFF;}
	.st4{fill:#D83B01;}
</style>
<g>
	<polygon id="Fill-1" class="st0" points="110.2,0 110.2,9.5 36.8,9.5 36.8,0 27.6,0 27.6,9.5 0,9.5 0,143 147,143 147,9.5 
		119.4,9.5 119.4,0 	"/>
	<polygon id="Fill-16" class="st1" points="120.6,28.5 120.6,19 139,19 139,38 10,38 10,19 28.4,19 28.4,28.5 37.6,28.5 37.6,19 
		111.4,19 111.4,28.5 	"/>
</g>
<title>Graphic08_thats6additional</title>
<desc>Created with Sketch.</desc>
<g>
	<polygon id="Fill-2" class="st2" points="28,124 38,124 38,114 28,114 	"/>
	<polygon id="Fill-3" class="st2" points="55,124 65,124 65,114 55,114 	"/>
	<polygon id="Fill-4" class="st2" points="82,124 92,124 92,114 82,114 	"/>
	<polygon id="Fill-5" class="st3" points="28,105 38,105 38,95 28,95 	"/>
	<polygon id="Fill-6" class="st4" points="55,105 65,105 65,95 55,95 	"/>
	<polygon id="Fill-7" class="st3" points="82,105 92,105 92,95 82,95 	"/>
	<polygon id="Fill-8" class="st3" points="111,105 121,105 121,95 111,95 	"/>
	<polygon id="Fill-9" class="st3" points="28,86 38,86 38,76 28,76 	"/>
	<polygon id="Fill-10" class="st4" points="55,86 65,86 65,76 55,76 	"/>
	<polygon id="Fill-11" class="st3" points="82,86 92,86 92,76 82,76 	"/>
	<polygon id="Fill-12" class="st3" points="111,86 121,86 121,76 111,76 	"/>
	<polygon id="Fill-13" class="st2" points="55,67 65,67 65,57 55,57 	"/>
	<polygon id="Fill-14" class="st3" points="82,67 92,67 92,57 82,57 	"/>
	<polygon id="Fill-15" class="st4" points="111,67 121,67 121,57 111,57 	"/>
</g>
</svg>
