<?xml version="1.0" encoding="utf-8"?>
<!-- Generator: Adobe Illustrator 21.1.0, SVG Export Plug-In . SVG Version: 6.00 Build 0)  -->
<svg version="1.1" id="Capa_1" xmlns="http://www.w3.org/2000/svg" xmlns:xlink="http://www.w3.org/1999/xlink" x="0px" y="0px"
	 viewBox="0 0 108 144" style="enable-background:new 0 0 108 144;" xml:space="preserve">
<style type="text/css">
	.st0{fill:#D2D2D2;}
	.st1{fill:#737373;}
	.st2{fill:#FFFFFF;}
	.st3{fill:#2F2F2F;}
	.st4{fill:#D83B01;}
</style>
<title>Graphic12_roamingdocuments</title>
<desc>Created with Sketch.</desc>
<g>
	<polygon id="Fill-1" class="st0" points="0,0 0,144 108,144 108,45 63,45 63,0 	"/>
	<polygon id="Fill-2" class="st1" points="72,36 108,36 72,0 	"/>
</g>
<g>
	<polygon id="Fill-3" class="st2" points="11,129 97,129 97,119 11,119 	"/>
	<polygon id="Fill-4" class="st3" points="11,111 97,111 97,101 11,101 	"/>
	<polygon id="Fill-5" class="st2" points="11,91 55,91 55,83 11,83 	"/>
	<polygon id="Fill-6" class="st4" points="64,91 98,91 98,83 64,83 	"/>
	<polygon id="Fill-7" class="st2" points="11,73 97,73 97,65 11,65 	"/>
	<polygon id="Fill-8" class="st2" points="11,57 35,57 35,47 11,47 	"/>
</g>
</svg>
