<?xml version="1.0" encoding="utf-8"?>
<!-- Generator: Adobe Illustrator 20.1.0, SVG Export Plug-In . SVG Version: 6.00 Build 0)  -->
<svg version="1.1" id="Capa_1" xmlns="http://www.w3.org/2000/svg" xmlns:xlink="http://www.w3.org/1999/xlink" x="0px" y="0px"
	 viewBox="0 0 83 75" style="enable-background:new 0 0 83 75;" xml:space="preserve">
<style type="text/css">
	.st0{filter:url(#Adobe_OpacityMaskFilter);}
	.st1{fill:#FFFFFF;}
	.st2{mask:url(#mask-2);fill:#D2D2D2;}
	.st3{filter:url(#Adobe_OpacityMaskFilter_1_);}
	.st4{mask:url(#mask-4);fill:#D2D2D2;}
</style>
<title>icon2_quote</title>
<desc>Created with Sketch.</desc>
<g id="assets_desktop1920">
	<g id="icons" transform="translate(-767.000000, -99.000000)">
		<g id="icon2_quote" transform="translate(767.000000, 99.000000)">
			<g id="Group-4">
				<g id="Group-3">
					<g id="Clip-2">
					</g>
					<defs>
						<filter id="Adobe_OpacityMaskFilter" filterUnits="userSpaceOnUse" x="0" y="0.6" width="35.3" height="73.8">
							<feColorMatrix  type="matrix" values="1 0 0 0 0  0 1 0 0 0  0 0 1 0 0  0 0 0 1 0"/>
						</filter>
					</defs>
					<mask maskUnits="userSpaceOnUse" x="0" y="0.6" width="35.3" height="73.8" id="mask-2">
						<g class="st0">
							<polygon id="path-1" class="st1" points="35.3,0.6 0,0.6 0,74.4 35.3,74.4 							"/>
						</g>
					</mask>
					<path id="Fill-1" class="st2" d="M35.3,31.3c0,5.3-0.4,10.4-1.2,15c-0.8,4.7-2.5,8.9-5,12.7s-6.1,7-10.7,9.6
						C13.8,71.3,7.7,73.2,0,74.4V57c5.8-0.7,9.8-2.7,12.1-6c2.3-3.3,3.7-7.6,3.7-13.4H0V0.6h35.3V31.3z"/>
				</g>
				<g id="Group-6" transform="translate(47.345070, 0.581395)">
					<g id="Clip-5">
					</g>
					<defs>
						<filter id="Adobe_OpacityMaskFilter_1_" filterUnits="userSpaceOnUse" x="0.1" y="0" width="35.3" height="73.8">
							<feColorMatrix  type="matrix" values="1 0 0 0 0  0 1 0 0 0  0 0 1 0 0  0 0 0 1 0"/>
						</filter>
					</defs>
					<mask maskUnits="userSpaceOnUse" x="0.1" y="0" width="35.3" height="73.8" id="mask-4">
						<g class="st3">
							<polygon id="path-3" class="st1" points="0.1,73.8 35.4,73.8 35.4,0 0.1,0 							"/>
						</g>
					</mask>
					<path id="Fill-4" class="st4" d="M35.4,30.7c0,5.3-0.4,10.4-1.2,15c-0.8,4.7-2.5,8.9-5,12.7s-6.1,7-10.7,9.6S7.8,72.6,0.1,73.8
						V56.4c5.8-0.7,9.8-2.7,12.1-6c2.3-3.3,3.7-7.7,3.7-13.4H0.1V0h35.3V30.7z"/>
				</g>
			</g>
		</g>
	</g>
</g>
</svg>
