<?xml version="1.0" encoding="utf-8"?>
<!-- Generator: Adobe Illustrator 21.1.0, SVG Export Plug-In . SVG Version: 6.00 Build 0)  -->
<svg version="1.1" id="Capa_1" xmlns="http://www.w3.org/2000/svg" xmlns:xlink="http://www.w3.org/1999/xlink" x="0px" y="0px"
	 viewBox="0 0 104 172" style="enable-background:new 0 0 104 172;" xml:space="preserve">
<style type="text/css">
	.st0{fill:#D2D2D2;}
	.st1{fill:#FFFFFF;}
	.st2{fill:#D33B01;}
</style>
<title>Graphic02_mobiledevices</title>
<desc>Created with Sketch.</desc>
<path id="Path" class="st0" d="M52,162c-3.6,0-6.6-2.9-6.6-6.5c0-3.6,2.9-6.5,6.6-6.5c3.6,0,6.6,2.9,6.6,6.5
	C58.6,159.1,55.6,162,52,162L52,162z"/>
<polygon id="Path_1_" class="st0" points="0,172 104,172 104,0 0,0 "/>
<polygon id="Path_2_" class="st1" points="14.7,137.9 89.3,137.9 89.3,14.5 14.7,14.5 "/>
<g>
	<polygon id="Path_3_" class="st2" points="0,172 104,172 104,154.7 104,143 0,143 	"/>
	<path id="Path_4_" class="st1" d="M52,148.8c3.6,0,6.6,2.9,6.6,6.6c0,3.6-2.9,6.6-6.6,6.6s-6.6-2.9-6.6-6.6
		C45.4,151.7,48.4,148.8,52,148.8L52,148.8z"/>
</g>
</svg>
