<?xml version="1.0" encoding="utf-8"?>
<!-- Generator: Adobe Illustrator 21.1.0, SVG Export Plug-In . SVG Version: 6.00 Build 0)  -->
<svg version="1.1" id="Capa_1" xmlns="http://www.w3.org/2000/svg" xmlns:xlink="http://www.w3.org/1999/xlink" x="0px" y="0px"
	 viewBox="0 0 120 151" style="enable-background:new 0 0 120 151;" xml:space="preserve">
<style type="text/css">
	.st0{fill:#505050;}
	.st1{fill:#D33B01;}
	.st2{fill:#FFFFFF;}
</style>
<title>Graphic09_and$</title>
<desc>Created with Sketch.</desc>
<g>
	<path id="Fill-3" class="st0" d="M53.5,83C24,83,0,107.6,0,138h107C107,107.6,83,83,53.5,83"/>
	<path id="Fill-1" class="st0" d="M89,37c0-15-8.6-27.8-20.8-33.6C63.7,1.3,58.8,0,53.5,0c-5.3,0-10.2,1.3-14.7,3.4
		C26.6,9.2,18,22,18,37c0,20.4,15.9,37,35.5,37S89,57.4,89,37z"/>
</g>
<path id="Fill-6" class="st1" d="M95,151c13.8,0,25-11.6,25-26c0-10.5-6-19.5-14.7-23.6C102.2,99.9,98.7,99,95,99s-7.2,0.9-10.3,2.4
	C76,105.5,70,114.5,70,125C70,139.4,81.2,151,95,151"/>
<path id="Path" class="st2" d="M104,131c0,2.2-0.7,3.9-2,5.3c-1.3,1.3-3.2,2.1-5.7,2.4v4.3h-2.7v-4.2c-2.6,0-4.9-0.6-7.1-1.8v-5.5
	c0.7,0.6,1.8,1.1,3.2,1.7c1.5,0.5,2.8,0.9,3.9,0.9V127c-2.8-1.1-4.7-2.3-5.9-3.5c-1.2-1.3-1.7-3-1.7-5c0-2.1,0.7-3.8,2.1-5.3
	c1.4-1.4,3.2-2.3,5.5-2.5V107h2.7v3.6c2.6,0.1,4.6,0.6,5.9,1.3v5.3c-1.7-1.1-3.7-1.8-5.9-2v7.5c2.8,1.1,4.7,2.2,5.9,3.5
	C103.4,127.5,104,129.1,104,131"/>
<path id="Path_1_" class="st1" d="M99,131.3c0-1.3-0.9-2.3-2.7-3.1v6C98.1,133.8,99,132.9,99,131.3"/>
<path id="Path_2_" class="st1" d="M93.6,121.5v-6.2c-1.7,0.3-2.6,1.3-2.6,2.9C91,119.5,91.9,120.6,93.6,121.5"/>
</svg>
