<?xml version="1.0" encoding="utf-8"?>
<!-- Generator: Adobe Illustrator 21.1.0, SVG Export Plug-In . SVG Version: 6.00 Build 0)  -->
<svg version="1.1" id="Capa_1" xmlns="http://www.w3.org/2000/svg" xmlns:xlink="http://www.w3.org/1999/xlink" x="0px" y="0px"
	 viewBox="0 0 186 138" style="enable-background:new 0 0 186 138;" xml:space="preserve">
<style type="text/css">
	.st0{fill:#D2D2D2;}
	.st1{fill:#FFFFFF;}
	.st2{fill:#E6E6E6;}
	.st3{fill:#808080;}
	.st4{fill:#505050;}
	.st5{fill:#D83B01;}
</style>
<title>Graphic11_officeforall</title>
<desc>Created with Sketch.</desc>
<path id="Path" class="st0" d="M181.7,49.4c-1.1-1-2.3-1.8-3.7-2.4c-1.4-0.6-2.9-0.9-4.4-0.9h-23.1V0.2H23.1v72.4L4.2,92.3
	c-1.4,1.6-2.5,3.4-3.2,5.5c-0.7,2.1-1,4.2-1,6.3c0,1.5,0.3,2.9,0.9,4.3s1.4,2.5,2.3,3.5c1,1,2.2,1.8,3.5,2.3S9.5,115,11,115h58.4
	v11.5c0,1.6,0.3,3.1,0.9,4.5c0.6,1.4,1.4,2.6,2.5,3.6c1.1,1,2.3,1.9,3.7,2.5c1.4,0.6,2.9,0.9,4.5,0.9h92.6c1.6,0,3.1-0.3,4.5-0.9
	c1.4-0.6,2.6-1.4,3.7-2.5c1.1-1,1.9-2.3,2.5-3.7c0.6-1.4,0.9-2.9,0.9-4.5v-69c0-1.6-0.3-3-1-4.4C183.6,51.7,182.7,50.5,181.7,49.4z"
	/>
<polygon id="Path_1_" class="st1" points="81,126.5 173.6,126.5 173.6,57.6 81,57.6 "/>
<path id="Path_2_" class="st1" d="M76.5,47c-0.5,0.2-0.9,0.5-1.3,0.7c-0.8,0.5-1.6,1.1-2.3,1.7c-1.1,1-1.9,2.3-2.5,3.6
	c-0.6,1.4-0.9,2.9-0.9,4.5v3v8.5H34.7V11.7h104.1v34.5H92.6H81C79.4,46.1,77.9,46.4,76.5,47L76.5,47z"/>
<path id="Fill-4" class="st2" d="M12.8,100c-0.4,0.4-0.6,1-0.9,1.7c-0.2,0.7-0.3,1.3-0.4,1.8h57.9v-23h-38L12.8,100z"/>
<g>
	<polygon id="Fill-5" class="st3" points="92.5,115.9 104.1,115.9 104.1,87.2 92.5,87.2 	"/>
	<polygon id="Fill-6" class="st4" points="109.9,115.9 121.5,115.9 121.5,97.7 109.9,97.7 	"/>
	<polygon id="Fill-7" class="st5" points="127.4,115.9 139,115.9 139,79.5 127.4,79.5 	"/>
</g>
<g>
	<polygon id="Fill-8" class="st4" points="46.2,60.6 57.7,60.6 57.7,31.9 46.2,31.9 	"/>
	<path id="Fill-10" class="st3" d="M63.6,42.4v18.2h5.8v-3c0-1.6,0.3-3.1,0.9-4.5c0.6-1.4,1.4-2.6,2.5-3.6c0.7-0.7,1.5-1.3,2.3-1.7
		v-5.4H63.6z"/>
	<polygon id="Fill-11" class="st5" points="81,21 81,46.1 81,46.1 92.6,46.1 92.6,21 	"/>
</g>
<path id="Path_3_" class="st2" d="M69.4,103.5H11.6c0.1-0.5,0.2-1.2,0.4-1.8c0.2-0.7,0.5-1.2,0.9-1.7l18.6-19.5h38V103.5z"/>
</svg>
