<?xml version="1.0" encoding="utf-8"?>
<!-- Generator: Adobe Illustrator 21.1.0, SVG Export Plug-In . SVG Version: 6.00 Build 0)  -->
<svg version="1.1" id="Capa_1" xmlns="http://www.w3.org/2000/svg" xmlns:xlink="http://www.w3.org/1999/xlink" x="0px" y="0px"
	 viewBox="0 0 925 419" style="enable-background:new 0 0 925 419;" xml:space="preserve">
<style type="text/css">
	.st0{fill:none;stroke:#979797;stroke-width:3.5;stroke-linecap:square;}
	.st1{fill:#D33B01;}
	.st2{fill:#D2D2D2;}
</style>
<title>Graphic07_organizationadopting</title>
<desc>Created with Sketch.</desc>
<path id="Line-4" class="st0" d="M2.5,416.5h920.1"/>
<g>
	<polygon id="Fill-1" class="st1" points="111,0 166,208 221,416 111,416 1,416 56,208 	"/>
	<polygon id="Fill-4" class="st2" points="287,111 342,264 397,417 287,417 177,417 232,264 	"/>
	<polygon id="Fill-7" class="st2" points="463,140 518,278 573,416 463,416 353,416 408,278 	"/>
	<polygon id="Fill-9" class="st2" points="638,146 693,281.5 748,417 638,417 528,417 583,281.5 	"/>
	<polygon id="Fill-11" class="st2" points="814,169 869,293 924,417 814,417 704,417 759,293 	"/>
</g>
</svg>
