<?xml version="1.0" encoding="utf-8"?>
<!-- Generator: Adobe Illustrator 21.1.0, SVG Export Plug-In . SVG Version: 6.00 Build 0)  -->
<svg version="1.1" id="Capa_1" xmlns="http://www.w3.org/2000/svg" xmlns:xlink="http://www.w3.org/1999/xlink" x="0px" y="0px"
	 viewBox="0 0 114 153" style="enable-background:new 0 0 114 153;" xml:space="preserve">
<style type="text/css">
	.st0{fill:#2F2F2F;}
	.st1{fill:#FFFFFF;}
	.st2{fill:#D2D2D2;}
	.st3{fill:#D83B01;}
</style>
<title>Graphic13_securitythatfollowsyou</title>
<desc>Created with Sketch.</desc>
<path id="Path" class="st0" d="M0,67h19V39c0-5.4,1-10.4,2.9-15.2c1.9-4.7,4.6-8.9,8-12.4c3.4-3.5,7.4-6.3,12.1-8.4S51.6,0,57,0
	s10.4,1,15,3.1s8.6,4.8,12.1,8.4c3.4,3.5,6.1,7.7,8,12.4C94,28.6,95,33.6,95,39v28h19H0z"/>
<path id="Path_1_" class="st1" d="M28.5,67h57V39c0-4-0.7-7.8-2.2-11.4c-1.4-3.6-3.4-6.7-6-9.4c-2.6-2.7-5.6-4.8-9.1-6.4
	c-3.5-1.5-7.3-2.3-11.3-2.3s-7.8,0.8-11.3,2.3c-3.5,1.6-6.5,3.7-9.1,6.4c-2.6,2.7-4.5,5.8-6,9.4c-1.4,3.6-2.2,7.4-2.2,11.4V67z"/>
<path id="Path_3_" class="st1" d="M57,131.7c-10.5,0-19-8.7-19-19.3s8.5-19.3,19-19.3s19,8.7,19,19.3S67.5,131.7,57,131.7L57,131.7z
	"/>
<g>
	<polygon id="Path_2_" class="st2" points="0,153 114,153 114,67 0,67 	"/>
	<path id="Fill-5" class="st3" d="M57.5,103c-5.2,0-9.5,4.3-9.5,9.5c0,5.2,4.3,9.5,9.5,9.5s9.5-4.3,9.5-9.5
		C67,107.3,62.7,103,57.5,103"/>
</g>
</svg>
