<?xml version="1.0" encoding="utf-8"?>
<!-- Generator: Adobe Illustrator 21.1.0, SVG Export Plug-In . SVG Version: 6.00 Build 0)  -->
<svg version="1.1" id="Capa_1" xmlns="http://www.w3.org/2000/svg" xmlns:xlink="http://www.w3.org/1999/xlink" x="0px" y="0px"
	 viewBox="0 0 642 586" style="enable-background:new 0 0 642 586;" xml:space="preserve">
<style type="text/css">
	.st0{fill:#DC4405;}
	.st1{fill:#E6E6E6;}
</style>
<title>Graphic06_theworkplaceischanging</title>
<desc>Created with Sketch.</desc>
<polygon id="Fill-1" class="st0" points="350.6,242 307,278 422,278 422,308.2 307.1,308.2 350.6,344 330.7,367 241,293.1 
	330.7,219 "/>
<polygon id="Fill-2" class="st1" points="109.6,242 66,278 181,278 181,308.2 66.1,308.2 109.6,344 89.7,367 0,293.1 89.7,219 "/>
<polygon id="Fill-4" class="st1" points="98.4,0 174,87.7 150.5,107.2 113.8,64.5 113.8,177 83,177 83,64.6 46.5,107.1 23,87.8 "/>
<polygon id="Fill-5" class="st1" points="272.5,70.8 309.2,113.5 309.2,1 340,1 340,113.4 376.5,70.9 400,90.2 324.6,178 249,90.3 
	"/>
<polygon id="Fill-6" class="st1" points="272.5,476.8 309.2,519.5 309.2,407 340,407 340,519.4 376.5,476.9 400,496.2 324.6,584 
	249,496.3 "/>
<polygon id="Fill-7" class="st1" points="642,496.7 618.5,516.2 581.8,473.5 581.8,586 551,586 551,473.6 514.5,516.1 491,496.8 
	566.4,409 "/>
</svg>
