<svg version="1.1" id="circle" xmlns="http://www.w3.org/2000/svg" xmlns:xlink="http://www.w3.org/1999/xlink" x="0px" y="0px"
	viewBox="0 0 389 391" style="enable-background:new 0 0 389 391;" xml:space="preserve" width="389">
	<style type="text/css">
		.st0{fill:#DC4405;}
		.st1{fill:#D2D2D2;}

		/*#patch { fill: blue}*/
	</style>
	<script src="https://code.jquery.com/jquery-3.2.1.min.js" integrity="sha256-hwg4gsxgFZhOsEEamdOYGBf13FyQuiTwlAQgxVSNgt4=" crossorigin="anonymous"></script>
	<script type="text/javascript">
							$(document).ready(function(){    

							var whole_icon = $('#circle');

							var enmascarado = $('#circle .enmascarado');
							var patch = $('#circle #patch');



							var tl = new TimelineMax();

							tl.to(whole_icon, 0, {opacity:1});

							tl.from(enmascarado, 1, {ease: Power2.easeOut, rotation:-220, transformOrigin: "47% 50%"});   
							tl.from(patch, 1, {ease: Power2.easeOut, rotation:-100, transformOrigin: "98% 64%"}, '-=1');   
							});
						</script>
	<title>Graphic01_circle</title>
	<defs>
		<clipPath id="MASKED">
			<path class="st0" d="M197.4,0l-0.7,45C277.7,46.7,343,113,343,194.5c0,82.6-66.9,149.5-149.5,149.5c-56.2,0-105.1-31-130.6-76.8
				L23,289.1C57.1,351.8,122.9,391,194.1,391C301,391,389,302.7,389,195.5C389,89.5,303,1.8,197.4,0z"></path>
			</clipPath>
		</defs>
		<desc>Created with Sketch.</desc>
		<path class="st0" d="M197.4,0l-0.7,45C277.7,46.7,343,113,343,194.5c0,82.6-66.9,149.5-149.5,149.5c-56.2,0-105.1-31-130.6-76.8
			L23,289.1C57.1,351.8,122.9,391,194.1,391C301,391,389,302.7,389,195.5C389,89.5,303,1.8,197.4,0z"/>

			<path class="st1" d="M197.4,0l-0.7,45C277.7,46.7,343,113,343,194.5c0,82.6-66.9,149.5-149.5,149.5c-56.2,0-105.1-31-130.6-76.8
				L23,289.1C57.1,351.8,122.9,391,194.1,391C301,391,389,302.7,389,195.5C389,89.5,303,1.8,197.4,0z"></path>

				<g>
					<path class="st1" d="M34.5,305.7c0.8,1.1,1.5,2.2,2.3,3.3C36,307.9,35.3,306.8,34.5,305.7z"/>
					<path class="st1" d="M62.9,267.2c-12-21.5-18.9-46.3-18.9-72.7C44,111.9,110.9,45,193.5,45c1.6,0,3.2,0,4.7,0.1L199,0
						c-1.1,0-2.2,0-3.3,0C87.6,0,0,87.3,0,195.1c0,40.9,12.6,78.8,34.2,110.2c-3.7-5.4-7.2-11-10.3-16.8L62.9,267.2z"/>
						<path class="st1" d="M36.8,308.9c0.2,0.3,0.5,0.7,0.7,1C37.3,309.6,37.1,309.3,36.8,308.9z"/>
						<path class="st1" d="M34.2,305.2c0.1,0.1,0.2,0.3,0.3,0.4C34.4,305.5,34.3,305.4,34.2,305.2z"/>
						<path class="st1" d="M39.5,312.6c0.3,0.4,0.6,0.8,0.9,1.2C40.1,313.4,39.8,313,39.5,312.6z"/>
						<path class="st1" d="M42.4,316.4c0.3,0.4,0.6,0.7,0.9,1.1C43,317.1,42.7,316.7,42.4,316.4z"/>
						<path class="st1" d="M37.5,309.9c0.7,0.9,1.3,1.8,2,2.7C38.9,311.7,38.2,310.8,37.5,309.9z"/>
						<path class="st1" d="M43.3,317.5c1,1.2,1.9,2.4,2.9,3.5C45.3,319.8,44.3,318.7,43.3,317.5z"/>
						<path class="st1" d="M40.4,313.8c0.7,0.9,1.3,1.7,2,2.5C41.8,315.5,41.1,314.7,40.4,313.8z"/>
					</g>

					<g id="mask" clip-path="url(#MASKED)">

						<path class="st0 enmascarado" d="M197.4,0l-0.7,45C277.7,46.7,343,113,343,194.5c0,82.6-66.9,149.5-149.5,149.5c-56.2,0-105.1-31-130.6-76.8
							L23,289.1C57.1,351.8,122.9,391,194.1,391C301,391,389,302.7,389,195.5C389,89.5,303,1.8,197.4,0z"></path>

							<path class="st1" d="M62.9,267.2c-12-21.5-18.9-46.3-18.9-72.7C44,111.9,110.9,45,193.5,45c1.6,0,3.2,0,4.7,0.1L199,0
								c-1.1,0-2.2,0-3.3,0C87.6,0,0,87.3,0,195.1c0,40.9,12.6,78.8,34.2,110.2c-3.7-5.4-7.2-11-10.3-16.8L62.9,267.2z" id="patch"/>
							</g>



						</svg>
