<svg version="1.1" id="USmap" xmlns="http://www.w3.org/2000/svg" xmlns:xlink="http://www.w3.org/1999/xlink"  width="254" x="0px" y="0px"
viewBox="0 0 254 158" style="enable-background:new 0 0 254 158;" xml:space="preserve">
<style type="text/css">
.st0{fill:#D1D1D1;}
.st1{fill:#D33B01;}


</style>
<defs>
	<clipPath id="Fill-1-MAP">
		<path  class="st0" d="M213.9,158c2-1.5,3.8-3.1,4.3-6.1c-1-0.4-0.2,1-0.9,0.9c2.2-7.6-2-12.8-4.6-17.4
		c0-0.6,0.8-0.4,0.6-1.2c-4.4-3.9-8.9-11.8-6.3-19.4c0.6-1.8,2.6-2.8,2.6-4.6c2.7-0.9,3.5-3.9,5.7-5.2c-0.2-3.8,1.9-5.4,5.2-5.8
		c-0.3-5.7,7-4.6,7.2-8.4c-0.2,0.5-2.5,0.9-2.9,0c1.2,1,2-1.6,0.9-2c1.9,0.5,3.9-0.3,4-2.3c-0.5-0.8-1.8,0.7-2.3-0.3
		c1,0.1,1.7-0.2,2-0.9l-0.1-0.4l0.4,0.1c-1.2-1.9-2.2-4-3.2-6.1c-0.7,0-1.4-0.1-1.8,0.1c1.1-1-1.3-2.1-0.8-2.8c0.3,0,0.3,0.2,0.6,0.3
		c-0.2-2.1-0.8-3.8-2.3-4.6c0.8,0.2,0.6-0.6,0.9-0.9c-2-1.3-2.3-6.7-0.3-6.9c-1.3,1.2,0.8,2.7-0.6,4.1c1.3,0,0.5,0.4,0.6,2
		c1.5,0.1,1.2,2.1,2.3,2.6c0.4-1-0.9-1.7-0.3-2c3,1.1-0.6,5.3,1.7,6.9c0.6-3.7,3.2-7.2,1.7-11.3c-2-0.6-2.3-2.9-3.4-4.3
		c0.8,1.1,1.9,2,3.7,2c0.1,0.7-0.5,0.6-0.3,1.4c2.2-2.1,3.9-5.8,2.9-10.1c-0.3-0.7-1.1,0.6-1.4-0.3c0.6-0.1,0.6-0.8,1.2-0.9l-0.1-0.8
		l0.4-0.7c1.7-3.5,6.3-4.2,9.9-6h-35.9c-3.6,4.4-8.5,7.4-13.9,10c-0.9-1.2-3.8-0.4-4.3-2c1.5-1.4,1.2-5.4,3.5-5.2
		c-0.1-0.9-0.2-1.9-0.3-2.8h-17.6c2.2,3.5,1.1,10.1-2.8,11.2c-3-2.7-3.7-6.9-3.4-11.2H1c-0.4,0.6-0.7,1.3-1,1.9
		c3.2,2.1,0.2,5.9,0.6,8.7c0.2,1.2,2.2,3,2.3,4.9C3,64.3,3.1,64.9,4.3,66c-1.5,2.5,0,5.7,1.7,6.7c-0.2,1-1.3,1-1.4,2
		c0.1,3.8,3.8,6.8,4,10.1c0.1,1.5-1.4,2.6-0.3,4.1c5-0.1,5.6,4.2,9.2,5.5c0.2,0.9-0.5,0.9,0,1.4c3.3,0.8,4.5,3.7,4.3,8.1
		c3.5,1.3,8.4,1.2,12.4,2c0,0.6-0.8,0.4-0.6,1.2c4.5,2.2,8.8,5.3,12.9,7.8c5.4,3.2,11.7,4,19.8,4.9c0.1-1,0.1-2.2,0.6-2.9
		c2.8,0.5,5.6,1,8.6,1.2c2,2.5,3.5,5.5,6.6,6.9c1.6,1.7,1.1,3.6,1.7,6.1c0.8,3.2,4.9,4,7.5,5.8c2.1-1.3,1.8-4.9,4.9-5.2
		c6.1,0.7,9.1,4.6,10.1,10.4c2.1,1.1,2.6,3.7,4.6,4.9c-1.3,7.3,6.9,9.1,11.8,10.1c-0.9-3.9-0.7-7.7-0.3-11.9
		c4.9-3.3,10.8-5.6,14.7-9.8c4.1-3.4,11.3-0.9,15.5-0.9c-0.2-1.6-1.9-0.1-2.3-1.2c1.8-1.7,3.2,1.1,4.9,1.4c0.1,0.5-0.3,0.6-0.3,1.2
		c1,0.4,1.8,1.1,3.2,1.2c0.7-0.5,1.1-1.4,2.3-1.4c0.9,0.6-0.7,1.2,0,1.4c2.3-0.7,0.5-2.2,2.3-2.9c0.4,1.4,4.3,3.2,4.6,1.2
		c-0.8-1.1-3.2-0.6-3.7-2c0.9-0.8,2-1,1.4-3.2c-1.3-0.1-0.7,1.6-2.3,1.2c1.3-3.4,4.3-3,8.3-3.2c0.6-0.5,0.1-2,1.2-2
		c0.6,0.5,1.4,2.1,0.3,2.6c4.8-1.6,11.7-2.8,14.1,1.7c2.5-0.2,4.9-1.3,5.2-2.9c4.9-0.5,4.6,4.2,8.6,4.6c2.4,2-0.3,7.4,2,9.3
		c0.7-0.8-0.2-1.9,0-2c0.4,0,1.1-0.1,1.2,0.3c0.1,1.4-1.1,1.4-1.2,2.6c1.5,1.7,2.7,3.6,3.7,5.8c0.8,0.2,0.7-0.4,1.4-0.3
		c0.6,1,0.9,2.2,1.4,3.2c2.5-0.6,3.6,2.2,4.3,4.3c1.1-0.4,3-1.4,3.7-1.2C216.7,156,213.8,156.7,213.9,158"/>
	</clipPath>

</defs>
<title>Graphic02_USmap</title>
<desc>Created with Sketch.</desc>
<path id="Fill-3" class="st0" d="M213.9,158c2-1.5,3.8-3.1,4.3-6.1c-1-0.4-0.2,1-0.9,0.9c2.2-7.6-2-12.8-4.6-17.4
c0-0.6,0.8-0.4,0.6-1.2c-4.4-3.9-8.9-11.8-6.3-19.4c0.6-1.8,2.6-2.8,2.6-4.6c2.7-0.9,3.5-3.9,5.7-5.2c-0.2-3.8,1.9-5.4,5.2-5.8
c-0.3-5.7,7-4.6,7.2-8.4c-0.2,0.5-2.5,0.9-2.9,0c1.2,1,2-1.6,0.9-2c1.9,0.5,3.9-0.3,4-2.3c-0.5-0.8-1.8,0.7-2.3-0.3
c1,0.1,1.7-0.2,2-0.9l-0.1-0.4l0.4,0.1c-1.2-1.9-2.2-4-3.2-6.1c-0.7,0-1.4-0.1-1.8,0.1c1.1-1-1.3-2.1-0.8-2.8c0.3,0,0.3,0.2,0.6,0.3
c-0.2-2.1-0.8-3.8-2.3-4.6c0.8,0.2,0.6-0.6,0.9-0.9c-2-1.3-2.3-6.7-0.3-6.9c-1.3,1.2,0.8,2.7-0.6,4.1c1.3,0,0.5,0.4,0.6,2
c1.5,0.1,1.2,2.1,2.3,2.6c0.4-1-0.9-1.7-0.3-2c3,1.1-0.6,5.3,1.7,6.9c0.6-3.7,3.2-7.2,1.7-11.3c-2-0.6-2.3-2.9-3.4-4.3
c0.8,1.1,1.9,2,3.7,2c0.1,0.7-0.5,0.6-0.3,1.4c2.2-2.1,3.9-5.8,2.9-10.1c-0.3-0.7-1.1,0.6-1.4-0.3c0.6-0.1,0.6-0.8,1.2-0.9l-0.1-0.8
l0.4-0.7c1.7-3.5,6.3-4.2,9.9-6h-35.9c-3.6,4.4-8.5,7.4-13.9,10c-0.9-1.2-3.8-0.4-4.3-2c1.5-1.4,1.2-5.4,3.5-5.2
c-0.1-0.9-0.2-1.9-0.3-2.8h-17.6c2.2,3.5,1.1,10.1-2.8,11.2c-3-2.7-3.7-6.9-3.4-11.2H1c-0.4,0.6-0.7,1.3-1,1.9
c3.2,2.1,0.2,5.9,0.6,8.7c0.2,1.2,2.2,3,2.3,4.9C3,64.3,3.1,64.9,4.3,66c-1.5,2.5,0,5.7,1.7,6.7c-0.2,1-1.3,1-1.4,2
c0.1,3.8,3.8,6.8,4,10.1c0.1,1.5-1.4,2.6-0.3,4.1c5-0.1,5.6,4.2,9.2,5.5c0.2,0.9-0.5,0.9,0,1.4c3.3,0.8,4.5,3.7,4.3,8.1
c3.5,1.3,8.4,1.2,12.4,2c0,0.6-0.8,0.4-0.6,1.2c4.5,2.2,8.8,5.3,12.9,7.8c5.4,3.2,11.7,4,19.8,4.9c0.1-1,0.1-2.2,0.6-2.9
c2.8,0.5,5.6,1,8.6,1.2c2,2.5,3.5,5.5,6.6,6.9c1.6,1.7,1.1,3.6,1.7,6.1c0.8,3.2,4.9,4,7.5,5.8c2.1-1.3,1.8-4.9,4.9-5.2
c6.1,0.7,9.1,4.6,10.1,10.4c2.1,1.1,2.6,3.7,4.6,4.9c-1.3,7.3,6.9,9.1,11.8,10.1c-0.9-3.9-0.7-7.7-0.3-11.9
c4.9-3.3,10.8-5.6,14.7-9.8c4.1-3.4,11.3-0.9,15.5-0.9c-0.2-1.6-1.9-0.1-2.3-1.2c1.8-1.7,3.2,1.1,4.9,1.4c0.1,0.5-0.3,0.6-0.3,1.2
c1,0.4,1.8,1.1,3.2,1.2c0.7-0.5,1.1-1.4,2.3-1.4c0.9,0.6-0.7,1.2,0,1.4c2.3-0.7,0.5-2.2,2.3-2.9c0.4,1.4,4.3,3.2,4.6,1.2
c-0.8-1.1-3.2-0.6-3.7-2c0.9-0.8,2-1,1.4-3.2c-1.3-0.1-0.7,1.6-2.3,1.2c1.3-3.4,4.3-3,8.3-3.2c0.6-0.5,0.1-2,1.2-2
c0.6,0.5,1.4,2.1,0.3,2.6c4.8-1.6,11.7-2.8,14.1,1.7c2.5-0.2,4.9-1.3,5.2-2.9c4.9-0.5,4.6,4.2,8.6,4.6c2.4,2-0.3,7.4,2,9.3
c0.7-0.8-0.2-1.9,0-2c0.4,0,1.1-0.1,1.2,0.3c0.1,1.4-1.1,1.4-1.2,2.6c1.5,1.7,2.7,3.6,3.7,5.8c0.8,0.2,0.7-0.4,1.4-0.3
c0.6,1,0.9,2.2,1.4,3.2c2.5-0.6,3.6,2.2,4.3,4.3c1.1-0.4,3-1.4,3.7-1.2C216.7,156,213.8,156.7,213.9,158"/>
<g>
	<path id="Fill-4" class="st0" d="M186.2,40.9c-1.8,0.2-1.6,2.5-3.1,3.1c-1.1,0.2-0.8-1.1-0.8-2c3.2-0.8,1.1-5.8,1.7-7.4
	c-0.7,0.1-0.7-0.6-0.8-1.1c-3,0-5.6-3.4-7.3-0.3c-0.2,0.9,0.9,0.4,0.8,1.1c-1-0.2-1.2,0.3-1.7,0.6c-0.2,1.7,0.8,2.9-0.8,3.1
	c-0.4-1.4,1.2-2.4,0-2.8c-2.6,2.8-2.7,5.9-3.1,10.7c0.3,0.3,0.5,0.6,0.8,1H189C188.6,44.4,187.9,42.2,186.2,40.9"/>
	<path id="Fill-6" class="st0" d="M251.4,19.7c0.2-1-0.4-1.1-0.3-2.1c-0.8,0-1.6,0.1-2-0.3c-0.5-3.1-1.7-5.5-2.3-8.5
	c-1.1,0-1.7-0.6-2.6-0.9c-0.7,0.6-1.3,1.5-2.3,1.8c-0.8-0.1-0.4-1.4-1.4-1.2c-1.1,2.8-3.1,7.3-1.7,10.9c-0.7,1.2-1.5,2.4-1.4,4.4
	c-1-0.2-1.4,0.7-2,0c-0.3,0.9-0.2,2.1-1.1,2.3c-3,0.5-6.3,1.9-9.5,2.6c-1.5,0.4-3.1,0.1-4.3,0.9c-1.4,0.9-1.9,3-2.9,4.4
	c-0.7,1-2.1,1.1-1.7,2.6c1.3,0.5,1.1,2,1.1,2.9c-2.7,4-7.7,2-12,4.1c0.1,1.4,0.9,2,1.4,2.9c-0.3,0.4-0.7,0.9-1,1.3h35.8
	c0.6-0.3,1.1-0.6,1.6-1c0.4-0.9-0.1-1.5,1.1-1.8c0.2,0.9-0.1,1.5-0.6,1.8c1.3-0.7,1.9-2.1,3.7-2.3c0-1.5-0.4-2.7-2-2.6
	c0.1,0.9,1.5,0.6,1.4,1.8c-2.5,2.2-3-2.7-4.9-2.1c0.2-2.6-0.1-6.1,1.1-10c1.6,0.3,2.7-1.5,4-2.3c0.2-1-0.3-2.8,0-2.9
	c0.3,0.4,1.2,0.3,1.1,1.2c-0.7,0.4-1.1,0.4-0.6,1.5c1.4-0.4,0.8-2.4,1.7-3.2c-0.1,0.8-0.1,1.5,0.9,1.2c0.5-1.7-0.3-0.8-0.6-1.8
	c2.2,1.1,6.4-3.4,3.7-5.6C252.2,19.6,252,20.4,251.4,19.7"/>
	<path id="Fill-8" class="st0" d="M167.8,35.5c-1.2,1.4-2.4,4.3-3.7,4.6c1-2.8,2.7-4.7,3.4-7.7c2.5,0.6,3.8-1.2,6.9-2
	c2.5,0.4,4.8,0,6.6-0.3c-1.3-0.2-1.6-1.4-1.4-3.1c-1.5,0-2.7,1.2-4,0.6v-1.7c-4.2,0.5-6.3,3.1-10,2.6c-0.5-2.3-3.8-2.8-4.6-1.7
	c0.4-1.8,1.9-2.6,2.9-4c-2.8,0-3.8,1.9-5.2,3.4c-2,1.1-4.2,1.9-6,3.1c-0.3-1.1-1.7,0-2-0.6c0.3-0.6,0.9-0.8,0.9-1.7
	c-1.5-0.5-3.4,2.3-5.4,1.1c2.1-1.2,2.9-3.8,4.9-5.1c1.6-1.2,4-0.9,5.2-2.9c-1.7-0.3-4.4-0.1-5.4-1.1c-1.5,1.5-4.5,1.4-4.9-0.6
	c-2.5,0.8-4.5-2.7-6.9-0.6c-1.2-0.4-2.1-1.2-3.7-1.1c-1.2-0.9-0.1-4.1-2.3-4c-0.7,0.3,0.1,2-0.6,2.3C89.9,15.7,54.1,8.3,21.8,0
	c1.3,2.1,0.1,4.6,0.6,6.3c-1.4-1.1-0.7-2-0.6-2.9c-1.2-0.2-0.7,1.2-1.7,1.1c-2.9-0.5-4.6-2.3-6.9-3.4C13,3.8,12.7,8.3,14,10.3
	c-0.5,0-0.9,0.1-1.1,0.3c-0.3,1.1,0.7,0.8,0.6,1.7c-1.2,0.7-1.6,2.2-0.3,2.9c-0.9-0.3-0.6,0.7-1.1,0.9c-2,6.5-4.3,12.7-8,17.4
	c0.1,1.7-0.3,2.9-0.6,4.3C4.8,41.3,2.6,44.3,1,47h164.6C165.9,42.8,167.1,38.5,167.8,35.5"/>
</g>
<g id="mask" clip-path="url(#Fill-1-MAP)">
	<rect  x="-11" y="47" class="enmascarado st1" width="252.1" height="111"  />
</g>

</svg>